<svg class="kekspay-icon-pay" viewBox="0 0 800 800" xmlns="http://www.w3.org/2000/svg"><g fill="none" fill-rule="evenodd"><circle fill="#312E5B" cx="400.5" cy="400.5" r="346.5"/><path d="M204 378.44c0 9.087 5.745 15.145 15.08 15.145h56.494c9.098 0 15.56-6.29 15.322-15.145l-.72-45.44h14.604l-.72 45.44c-.238 8.854 6.226 15.145 15.322 15.145h56.973c9.095 0 15.56-6.29 15.56-15.145v-60.585c0-8.855-6.465-14.914-15.56-14.914l-46.68.467v-13.75l46.68.468c9.095 0 15.56-6.06 15.56-14.914V220.22c0-8.855-6.465-15.147-15.56-15.147h-56.973c-9.096 0-15.56 6.292-15.321 15.147l.719 45.439h-14.603l.719-45.44c.239-8.854-6.224-15.146-15.322-15.146h-56.493c-9.336 0-15.081 6.059-15.081 15.147 0 23.767 1.915 41.244 1.915 75.73 0 41.945-1.915 57.556-1.915 82.49" fill="#21A3E9"/><path d="M406.356 378.53c.01 8.854 6.479 15.14 15.576 15.13 22.502-.02 48.353-.51 76.602-.538 26.57-.025 54.34.415 80.67.39 9.097-.009 15.554-6.306 15.545-15.16l-.026-27.263c-.009-8.855-6.48-15.14-15.576-15.133l-78.037.541-.013-13.284 78.038.393c9.097-.008 15.554-6.306 15.544-15.16l-.021-21.671c-.008-8.855-6.478-15.14-15.574-15.131l-78.038.54-.013-13.283 78.038.393c9.095-.01 15.552-6.306 15.544-15.161l-.024-24.002c-.008-8.855-6.478-15.14-15.573-15.131-22.503.02-55.536.752-77.08.772-21.067.02-57.453-.645-80.194-.624-9.097.01-15.554 6.307-15.545 15.161.023 23.535 1.477 42.176 1.512 75.963.035 35.186-1.383 54.528-1.355 82.257" fill="#3ADF9E"/><path d="M406.278 516.853c0 8.855 6.462 15.147 15.559 15.147l82.825-.467v13.282l-82.825-.465c-9.097 0-15.56 6.29-15.56 15.145v20.507c0 8.855 6.463 15.145 15.56 15.145 19.629-.233 49.792-.698 78.038-.698 28.725 0 59.367.465 79.236.698 9.095 0 15.559-6.29 15.559-15.145 0-13.982-.958-26.1-.958-47.77 0-20.272.958-32.622.958-45.438 0-8.855-6.464-15.146-15.559-15.146l-82.827.466V458.83l82.827.467c9.095 0 15.559-6.292 15.559-15.147v-22.37c0-8.855-6.464-15.147-15.559-15.147-28.726 0-56.974.933-80.433.933-27.768 0-57.212-.933-76.841-.933-9.097 0-15.8 6.292-15.56 15.147.24 11.418 1.198 26.565 1.198 46.138 0 20.972-1.197 35.186-1.197 48.934" fill="#21A3E9"/><path d="M204 580.001c0 9.088 5.745 15.147 15.08 15.147h56.494c9.098 0 15.56-6.292 15.322-15.147l-.72-45.439h14.604l-.72 45.44c-.238 8.854 6.226 15.146 15.322 15.146h56.973c9.095 0 15.56-6.292 15.56-15.147v-60.584c0-8.855-6.465-14.914-15.56-14.914l-46.68.467v-13.75l46.68.467c9.095 0 15.56-6.059 15.56-14.912V421.78c0-8.855-6.465-15.145-15.56-15.145h-56.973c-9.096 0-15.56 6.29-15.321 15.145l.719 45.44h-14.603l.719-45.44c.239-8.855-6.224-15.145-15.322-15.145h-56.493c-9.336 0-15.081 6.058-15.081 15.145 0 23.768 1.915 41.245 1.915 75.731 0 41.944-1.915 57.557-1.915 82.49" fill="#3ADF9E"/></g></svg>