<svg class="kekspay-logo" viewBox="0 0 706 311" xmlns="http://www.w3.org/2000/svg" xml:space="preserve"><path fill="#3ADF9E" d="M12.249 171.816c0 7.992 4.918 13.32 12.91 13.32H73.52c7.787 0 13.32-5.533 13.115-13.32l-.615-39.958h12.5l-.614 39.958c-.205 7.787 5.327 13.32 13.114 13.32h48.771c7.788 0 13.32-5.533 13.32-13.32v-53.279c0-7.787-5.532-13.115-13.32-13.115l-39.959.41v-12.09l39.959.41c7.788 0 13.32-5.328 13.32-13.115V32.676c0-7.787-5.532-13.319-13.32-13.319H111.02c-7.787 0-13.319 5.532-13.114 13.319l.614 39.96h-12.5l.615-39.96c.205-7.787-5.328-13.319-13.115-13.319H25.159c-7.992 0-12.91 5.328-12.91 13.319 0 20.902 1.64 36.271 1.64 66.599 0 36.886-1.64 50.616-1.64 72.541"/><path fill="#21A3E9" d="M185.407 171.816c0 7.787 5.533 13.32 13.32 13.32 19.262 0 41.393-.41 65.574-.41 22.746 0 46.517.41 69.058.41 7.787 0 13.32-5.533 13.32-13.32V147.84c0-7.787-5.533-13.319-13.32-13.319l-66.804.409v-11.68l66.804.41c7.787 0 13.32-5.533 13.32-13.32V91.283c0-7.786-5.533-13.32-13.32-13.32l-66.804.411V66.693l66.804.41c7.787 0 13.32-5.533 13.32-13.32V32.676c0-7.787-5.533-13.319-13.32-13.319-19.263 0-47.541.614-65.983.614-18.033 0-49.182-.614-68.648-.614-7.787 0-13.32 5.532-13.32 13.319 0 20.697 1.229 37.091 1.229 66.804-.001 30.943-1.23 47.952-1.23 72.336m347.341-55.533c0 7.787 5.532 13.32 13.319 13.32l70.902-.41v11.68l-70.902-.408c-7.787 0-13.319 5.531-13.319 13.318v18.033c0 7.787 5.532 13.32 13.319 13.32 16.804-.205 42.623-.615 66.804-.615 24.591 0 50.82.41 67.829.615 7.786 0 13.319-5.533 13.319-13.32 0-12.295-.819-22.951-.819-42.009 0-17.827.819-28.688.819-39.959 0-7.787-5.533-13.319-13.319-13.319l-70.902.409v-11.68l70.902.41c7.786 0 13.319-5.533 13.319-13.32V32.676c0-7.788-5.533-13.32-13.319-13.32-24.591 0-48.771.82-68.854.82-23.771 0-48.976-.82-65.779-.82-7.787 0-13.524 5.532-13.319 13.32.204 10.041 1.024 23.36 1.024 40.574 0 18.443-1.024 30.943-1.024 43.033"/><path fill="#3ADF9E" d="M359.59 171.816c0 7.992 4.918 13.32 12.91 13.32h48.361c7.787 0 13.32-5.533 13.115-13.32l-.615-39.958h12.5l-.614 39.958c-.205 7.787 5.327 13.32 13.114 13.32h48.771c7.788 0 13.32-5.533 13.32-13.32v-53.279c0-7.787-5.532-13.115-13.32-13.115l-39.959.41v-12.09l39.959.41c7.788 0 13.32-5.328 13.32-13.115V32.676c0-7.787-5.532-13.319-13.32-13.319h-48.771c-7.787 0-13.319 5.532-13.114 13.319l.614 39.96h-12.5l.615-39.96c.205-7.787-5.328-13.319-13.115-13.319H372.5c-7.992 0-12.91 5.328-12.91 13.319 0 20.902 1.64 36.271 1.64 66.599-.001 36.886-1.64 50.616-1.64 72.541"/><path fill="#2F2F5B" d="M262.492 241.571h27.272c12.197 0 19.319 5.909 19.319 17.197 0 11.137-7.122 17.349-19.319 17.349h-14.47v19.243h-12.803v-53.789zm12.803 11.212v12.122h13.183c5 0 7.425-2.349 7.425-6.061 0-4.017-2.425-6.062-7.425-6.062h-13.183zm89.47 33.259h-22.122l-3.484 9.319h-12.805l20.607-53.866h14.016l20.759 53.866H368.25l-3.485-9.319zm-4.016-10.758-7.045-18.939-7.046 18.939h14.091zm69.317 20.076h-13.56v-21.894l-20.834-31.896h16.06l12.047 18.941 12.045-18.941h14.319l-20.077 32.2z"/><path fill="#3ADF9E" d="M-304.197 426.042c0 2.833 1.743 4.722 4.576 4.722h17.142c2.76 0 4.72-1.961 4.648-4.722l-.218-14.164h4.431l-.218 14.164c-.073 2.761 1.888 4.722 4.648 4.722h17.287c2.76 0 4.721-1.961 4.721-4.722v-18.885c0-2.76-1.961-4.647-4.721-4.647l-14.163.145v-4.285l14.163.146c2.76 0 4.721-1.89 4.721-4.648v-17.142c0-2.761-1.961-4.722-4.721-4.722h-17.287c-2.76 0-4.721 1.961-4.648 4.722l.218 14.164h-4.431l.218-14.164c.072-2.761-1.888-4.722-4.648-4.722h-17.142c-2.833 0-4.576 1.89-4.576 4.722 0 7.408.581 12.855.581 23.605 0 13.073-.581 17.94-.581 25.711"/><path fill="#21A3E9" d="M-242.822 426.042c0 2.761 1.961 4.722 4.721 4.722 6.828 0 14.672-.146 23.243-.146 8.062 0 16.487.146 24.477.146 2.76 0 4.721-1.961 4.721-4.722v-8.498c0-2.76-1.961-4.721-4.721-4.721l-23.678.146v-4.141l23.678.146c2.76 0 4.721-1.961 4.721-4.722v-6.755c0-2.76-1.961-4.721-4.721-4.721l-23.678.145v-4.14l23.678.146c2.76 0 4.721-1.963 4.721-4.722v-7.481c0-2.761-1.961-4.722-4.721-4.722-6.827 0-16.851.219-23.388.219-6.392 0-17.432-.219-24.332-.219-2.76 0-4.721 1.961-4.721 4.722 0 7.336.436 13.146.436 23.678 0 10.968-.436 16.997-.436 25.64"/><path fill="#3ADF9E" d="M-242.822 469.187c0 2.76 1.961 4.721 4.721 4.721l25.131-.145v4.14l-25.131-.146c-2.76 0-4.721 1.962-4.721 4.722v6.392c0 2.76 1.961 4.721 4.721 4.721 5.956-.071 15.108-.218 23.678-.218 8.716 0 18.014.146 24.042.218 2.76 0 4.721-1.961 4.721-4.721 0-4.357-.29-8.135-.29-14.89 0-6.319.29-10.169.29-14.164 0-2.759-1.961-4.721-4.721-4.721l-25.131.146v-4.14l25.131.145c2.76 0 4.721-1.961 4.721-4.721v-6.973c0-2.761-1.961-4.722-4.721-4.722-8.716 0-17.287.29-24.405.29-8.425 0-17.359-.29-23.315-.29-2.76 0-4.794 1.961-4.721 4.722.073 3.559.363 8.279.363 14.381 0 6.537-.363 10.967-.363 15.253"/><path fill="#21A3E9" d="M-304.197 488.87c0 2.833 1.743 4.721 4.576 4.721h17.142c2.76 0 4.72-1.961 4.648-4.721l-.218-14.163h4.431l-.218 14.163c-.073 2.76 1.888 4.721 4.648 4.721h17.287c2.76 0 4.721-1.961 4.721-4.721v-18.884c0-2.762-1.961-4.649-4.721-4.649l-14.163.145v-4.284l14.163.145c2.76 0 4.721-1.888 4.721-4.647v-17.143c0-2.76-1.961-4.721-4.721-4.721h-17.287c-2.76 0-4.721 1.961-4.648 4.721l.218 14.164h-4.431l.218-14.164c.072-2.76-1.888-4.721-4.648-4.721h-17.142c-2.833 0-4.576 1.889-4.576 4.721 0 7.409.581 12.856.581 23.606 0 13.072-.581 17.94-.581 25.711"/><path fill="none" d="M-378-285.89H812.551V556H-378z"/></svg>